<?xml version="1.0" encoding="utf-8"?>
<!-- Generator: Adobe Illustrator 18.1.1, SVG Export Plug-In . SVG Version: 6.00 Build 0)  -->
<!DOCTYPE svg PUBLIC "-//W3C//DTD SVG 1.1//EN" "http://www.w3.org/Graphics/SVG/1.1/DTD/svg11.dtd">
<svg version="1.1" id="Layer_1" xmlns="http://www.w3.org/2000/svg" xmlns:xlink="http://www.w3.org/1999/xlink" x="0px" y="0px"
	 viewBox="0 0 232.8 134.6" enable-background="new 0 0 232.8 134.6" xml:space="preserve">
<path fill="#FFFFFF" d="M31.9,36.2c-0.5-0.9-1.1-1.6-1.9-2.1c-0.8-0.5-1.7-0.7-2.7-0.7c-1.6,0-2.9,0.5-3.8,1.6
	c-0.9,1-1.4,2.6-1.4,4.8v32.3c0,2.2,0.5,3.9,1.6,5c1,1.2,2.4,1.8,4,1.8c1.7,0,3-0.6,4.1-1.7c1-1.1,1.6-2.8,1.6-5.1v-14
	c0-4.6,0.3-7.7,0.8-9.3c0.8-2.1,2-3.7,3.6-4.9c1.6-1.2,3.4-1.8,5.4-1.8c3.1,0,5.1,1,6.1,2.9c1,1.9,1.5,4.8,1.5,8.4v18.6
	c0,2.2,0.5,3.9,1.6,5c1,1.2,2.4,1.8,4,1.8c1.6,0,3-0.6,4-1.7s1.5-2.8,1.5-5.1V51.3c0-2.5-0.1-4.5-0.3-6c-0.2-1.6-0.7-3.1-1.4-4.4
	c-1.1-2.3-2.9-4.2-5.2-5.4c-2.3-1.3-4.9-1.9-7.9-1.9c-3,0-5.7,0.6-8,1.8c-2.3,1.2-4.5,3.1-6.4,5.7v-1.3
	C32.6,38.3,32.4,37.2,31.9,36.2"/>
<g>
	<g>
		<path fill="#FFFFFF" d="M108.3,47c-1-2.8-2.5-5.2-4.5-7.2c-2-2-4.3-3.6-7.1-4.7C94,34,91,33.5,87.6,33.5c-3.3,0-6.4,0.5-9.1,1.6
			c-2.8,1.1-5.1,2.6-7,4.6c-1.9,2-3.4,4.4-4.5,7.2c-1,2.8-1.6,5.9-1.6,9.3c0,3.4,0.5,6.4,1.5,9.2c1,2.8,2.5,5.2,4.5,7.2
			c2,2,4.3,3.6,7,4.7c2.7,1.1,5.7,1.6,9.1,1.6c3.4,0,6.5-0.5,9.2-1.6c2.7-1.1,5.1-2.6,7-4.6c2-2,3.5-4.4,4.5-7.2
			c1-2.8,1.6-5.9,1.6-9.2C109.9,52.8,109.3,49.7,108.3,47z M95.6,66.7c-2,2.5-4.7,3.8-8.1,3.8c-2.2,0-4.2-0.6-5.8-1.7
			c-1.6-1.2-2.9-2.8-3.8-5c-0.9-2.2-1.3-4.7-1.3-7.6c0-2.9,0.5-5.5,1.3-7.7c0.9-2.2,2.2-3.9,3.8-5c1.7-1.1,3.6-1.7,5.8-1.7
			c3.4,0,6.1,1.3,8.1,3.8c2,2.5,3,6.1,3,10.6C98.7,60.7,97.7,64.2,95.6,66.7z"/>
	</g>
</g>
<path fill="#FFFFFF" d="M147.9,58.8c-1.1-1.6-2.8-3-5-4.1c-2.2-1.2-5-2.2-8.5-3c-2.9-0.7-5.2-1.3-6.9-1.8c-1.7-0.5-3-1.1-4-1.9
	c-1-0.7-1.5-1.7-1.5-2.9c0-1.3,0.7-2.3,2-3.2c1.3-0.9,3-1.3,5-1.3c2,0,3.5,0.3,4.7,1c1.1,0.7,2.1,1.5,3,2.6c1,1.3,2,2.3,2.8,2.9
	c0.8,0.7,1.8,1,2.9,1c1.6,0,2.8-0.4,3.7-1.2c0.9-0.8,1.3-1.9,1.3-3.1c0-1.2-0.4-2.4-1.2-3.6c-0.8-1.2-2-2.3-3.5-3.4
	c-1.5-1-3.5-1.8-5.8-2.4c-2.3-0.6-4.9-0.9-7.8-0.9c-3.7,0-6.8,0.6-9.4,1.8c-2.6,1.2-4.6,2.8-5.9,4.8c-1.3,2-2,4.1-2,6.3
	c0,2.5,0.7,4.6,2.2,6.3c1.4,1.7,3.4,3.1,5.8,4.1c2.4,1,5.5,2.1,9.4,3c3.4,0.8,5.9,1.7,7.3,2.6c1.5,0.9,2.2,2.3,2.2,4.3
	c0,1.3-0.7,2.4-2.1,3.4c-1.4,1-3.3,1.5-5.5,1.5c-2.8,0-4.9-0.5-6.5-1.5c-1.6-1-3-2.5-4.1-4.5c-0.6-1-1.2-1.8-1.8-2.4
	c-0.6-0.6-1.5-0.9-2.7-0.9c-1.3,0-2.4,0.4-3.3,1.3c-0.9,0.9-1.3,1.9-1.3,3.1c0,1.9,0.7,3.7,2,5.5c1.4,1.8,3.5,3.4,6.3,4.6
	c2.9,1.2,6.3,1.8,10.3,1.8c4.2,0,7.8-0.6,10.7-1.7c2.9-1.1,5.1-2.8,6.6-5c1.5-2.2,2.2-4.8,2.2-7.9C149.6,62.2,149,60.4,147.9,58.8"
	/>
<path fill="#FFFFFF" d="M188.3,58.8c-1.1-1.6-2.8-3-5-4.1c-2.2-1.2-5-2.2-8.5-3c-2.9-0.7-5.2-1.3-6.9-1.8c-1.7-0.5-3-1.1-4-1.9
	c-1-0.7-1.5-1.7-1.5-2.9c0-1.3,0.7-2.3,2-3.2c1.3-0.9,3-1.3,5-1.3c2,0,3.5,0.3,4.7,1c1.1,0.7,2.1,1.5,3,2.6c1,1.3,2,2.3,2.8,2.9
	c0.8,0.7,1.8,1,2.9,1c1.6,0,2.8-0.4,3.7-1.2c0.9-0.8,1.3-1.9,1.3-3.1c0-1.2-0.4-2.4-1.2-3.6c-0.8-1.2-2-2.3-3.5-3.4
	c-1.5-1-3.5-1.8-5.8-2.4c-2.3-0.6-4.9-0.9-7.8-0.9c-3.7,0-6.8,0.6-9.4,1.8c-2.6,1.2-4.6,2.8-5.9,4.8c-1.3,2-2,4.1-2,6.3
	c0,2.5,0.7,4.6,2.2,6.3c1.4,1.7,3.4,3.1,5.8,4.1c2.4,1,5.5,2.1,9.4,3c3.4,0.8,5.9,1.7,7.3,2.6c1.5,0.9,2.2,2.3,2.2,4.3
	c0,1.3-0.7,2.4-2.1,3.4c-1.4,1-3.3,1.5-5.5,1.5c-2.8,0-4.9-0.5-6.5-1.5c-1.6-1-3-2.5-4.1-4.5c-0.6-1-1.2-1.8-1.8-2.4
	c-0.6-0.6-1.5-0.9-2.7-0.9c-1.3,0-2.4,0.4-3.3,1.3c-0.9,0.9-1.3,1.9-1.3,3.1c0,1.9,0.7,3.7,2,5.5c1.4,1.8,3.5,3.4,6.3,4.6
	c2.9,1.2,6.3,1.8,10.3,1.8c4.2,0,7.8-0.6,10.7-1.7c2.9-1.1,5.1-2.8,6.6-5c1.5-2.2,2.2-4.8,2.2-7.9C190,62.2,189.4,60.4,188.3,58.8"
	/>
<path fill="#FFFFFF" d="M204,35.1c-1.1-1.1-2.4-1.7-4-1.7c-1.6,0-3,0.6-4,1.7c-1,1.1-1.5,2.8-1.5,5v31.9c0,2.2,0.5,3.9,1.5,5
	c1,1.2,2.4,1.8,4,1.8c1.6,0,3-0.6,4-1.7c1.1-1.1,1.6-2.8,1.6-5.1V39.8C205.6,37.8,205,36.3,204,35.1"/>
<path fill="#FFFFFF" d="M205.2,21.2c-0.3-0.7-0.6-1.3-1.1-1.8c-0.5-0.5-1.1-0.9-1.8-1.2c-0.7-0.3-1.5-0.4-2.3-0.4
	c-0.8,0-1.6,0.1-2.3,0.4c-0.7,0.3-1.3,0.7-1.8,1.2c-0.5,0.5-0.9,1.1-1.1,1.8c-0.3,0.7-0.4,1.5-0.4,2.4c0,0.9,0.1,1.6,0.4,2.3
	c0.3,0.7,0.6,1.3,1.1,1.8c0.5,0.5,1.1,0.9,1.8,1.2c0.7,0.3,1.5,0.4,2.3,0.4c0.9,0,1.7-0.1,2.3-0.4c0.7-0.3,1.3-0.7,1.8-1.2
	c0.5-0.5,0.9-1.1,1.1-1.8c0.3-0.7,0.4-1.5,0.4-2.3C205.6,22.7,205.5,21.9,205.2,21.2"/>
<path fill="#FFFFFF" d="M75.9,23.8c-0.6,0.6-0.9,1.3-0.9,2.2c0,0.9,0.3,1.6,0.9,2.2c0.6,0.6,1.5,0.8,2.8,0.8h17.6
	c1.2,0,2.1-0.3,2.8-0.8c0.6-0.6,1-1.3,1-2.2c0-0.9-0.3-1.6-0.9-2.2c-0.6-0.6-1.6-0.9-2.8-0.9H78.4C77.3,22.9,76.5,23.2,75.9,23.8"/>
<g>
	<path fill="#FFFFFF" d="M62.5,96.7c-0.5,0.7-1.1,1.3-1.9,1.7c-0.7,0.5-1.8,0.7-3.1,0.7c-1.9,0-3.4-0.7-4.6-2.2
		c-1.1-1.5-1.7-3.4-1.7-5.8c0-2.2,0.5-4.1,1.6-5.6c1.1-1.5,2.7-2.3,4.8-2.3c0.9,0,1.7,0.1,2.3,0.4c0.7,0.2,1.3,0.7,1.9,1.4l-1,1.1
		c-0.5-0.5-1-0.8-1.5-1.1c-0.6-0.2-1.2-0.4-1.8-0.4c-1.5,0-2.6,0.6-3.4,1.9c-0.8,1.2-1.2,2.7-1.2,4.4c0,2.2,0.5,3.9,1.4,5.1
		c0.9,1.2,2,1.8,3.1,1.8c1.1,0,1.9-0.2,2.5-0.5c0.5-0.4,1-0.8,1.4-1.4L62.5,96.7z"/>
	<path fill="#FFFFFF" d="M71.2,99.1c-2.2,0-3.8-0.7-5-2.2c-1.2-1.5-1.8-3.5-1.8-5.9c0-2.2,0.7-4.1,2-5.5c1.3-1.5,2.9-2.2,4.9-2.2
		c2.1,0,3.8,0.7,4.9,2.2c1.2,1.5,1.7,3.4,1.7,5.8c0,2.2-0.6,4.1-1.9,5.6C74.8,98.4,73.2,99.1,71.2,99.1z M71.3,97.7
		c1.3,0,2.4-0.6,3.4-1.8c1-1.2,1.5-2.9,1.5-5.2c0-1.5-0.4-2.9-1.2-4.2c-0.8-1.3-2-2-3.7-2c-1.6,0-2.9,0.6-3.8,1.8
		c-0.9,1.2-1.4,2.7-1.4,4.6c0,2.2,0.5,3.8,1.4,5C68.6,97.1,69.9,97.7,71.3,97.7z"/>
	<path fill="#FFFFFF" d="M89.7,98.9h-8.6V83.6h1.7v14h6.9V98.9z"/>
	<path fill="#FFFFFF" d="M100.8,98.9h-8.6V83.6h1.7v14h6.9V98.9z"/>
	<path fill="#FFFFFF" d="M110.8,84.9h-6.5v5.2h5.2v1.3h-5.2v6.1h6.8v1.3h-8.5V83.6h8.2V84.9z"/>
	<path fill="#FFFFFF" d="M124.1,98.2c-0.5,0.2-1.2,0.4-2.1,0.6c-0.9,0.2-1.9,0.3-3,0.3c-1.9,0-3.5-0.7-4.6-2.2
		c-1.1-1.5-1.7-3.4-1.7-5.8c0-2.2,0.5-4.1,1.6-5.6c1.1-1.5,2.6-2.3,4.6-2.3c1.1,0,1.9,0.1,2.6,0.4c0.6,0.2,1.3,0.7,1.9,1.4l-1,1.1
		c-0.5-0.5-1-0.8-1.5-1.1c-0.5-0.2-1.2-0.3-2-0.3c-1.3,0-2.4,0.6-3.2,1.9c-0.8,1.2-1.2,2.7-1.2,4.4c0,2.2,0.5,3.9,1.4,5.1
		c0.9,1.2,2,1.8,3.3,1.8c0.6,0,1.2,0,1.7-0.1c0.6-0.1,1.1-0.2,1.5-0.3v-5.7h1.7V98.2z"/>
	<path fill="#FFFFFF" d="M136,84.9h-6.5v5.2h5.2v1.3h-5.2v6.1h6.8v1.3h-8.5V83.6h8.2V84.9z"/>
	<path fill="#FFFFFF" d="M148.5,99.1c-2.2,0-3.8-0.7-5-2.2c-1.2-1.5-1.8-3.5-1.8-5.9c0-2.2,0.7-4.1,2-5.5c1.3-1.5,2.9-2.2,4.9-2.2
		c2.1,0,3.8,0.7,4.9,2.2c1.2,1.5,1.7,3.4,1.7,5.8c0,2.2-0.6,4.1-1.9,5.6C152.1,98.4,150.4,99.1,148.5,99.1z M148.6,97.7
		c1.3,0,2.4-0.6,3.4-1.8c1-1.2,1.5-2.9,1.5-5.2c0-1.5-0.4-2.9-1.2-4.2c-0.8-1.3-2-2-3.7-2c-1.6,0-2.9,0.6-3.8,1.8
		c-0.9,1.2-1.4,2.7-1.4,4.6c0,2.2,0.5,3.8,1.4,5C145.9,97.1,147.1,97.7,148.6,97.7z"/>
	<path fill="#FFFFFF" d="M166.2,84.9h-6.5v5.2h5.2v1.3h-5.2v7.5H158V83.6h8.2V84.9z"/>
	<path fill="#FFFFFF" d="M174.5,83.6h1.6l5.1,15.3h-1.8l-1.6-5.2h-5.2l-1.6,5.2h-1.7L174.5,83.6z M172.9,92.5h4.5l-2.2-7L172.9,92.5
		z"/>
	<path fill="#FFFFFF" d="M185.3,98.9h-1.7V83.6h4.2c1.6,0,2.8,0.4,3.7,1.1c0.8,0.8,1.2,1.8,1.2,3.2c0,0.9-0.3,1.8-1,2.5
		s-1.4,1.3-2.2,1.5l4.3,6.9h-2l-3.9-6.6c-0.1,0-0.9,0-2.6,0V98.9z M185.3,91.1h1.6c1.3,0,2.3-0.3,3-0.9c0.7-0.6,1.1-1.4,1.1-2.3
		c0-1.1-0.3-1.8-0.9-2.3c-0.6-0.5-1.6-0.7-2.9-0.7h-1.9V91.1z"/>
	<path fill="#FFFFFF" d="M205.6,85h-4.8v13.9h-1.7V85h-4.7v-1.4h11.2V85z"/>
</g>
</svg>
